<svg
  width="512"
  height="512"
  viewBox="0 64 1024 960"
  xmlns="http://www.w3.org/2000/svg"
>
  <path
    d="M1024,96L1024,507C1014.67,495.333 1004.67,484.167 994,473.5C983.333,462.833 972,453 960,444L960,143.5L704,245.5L704,369.5C693.333,370.5 682.667,371.833 672,373.5C661.333,375.167 650.667,377.5 640,380.5L640,245.5L384,143.5L384,628.5C384,631.167 383,635.167 381,640.5C379,645.833 377.667,650.167 377,653.5C375,662.5 373.333,671.667 372,681C370.667,690.333 369.667,699.667 369,709C368.667,713.667 368.417,718.167 368.25,722.5C368.083,726.833 368,731.333 368,736C368,752.667 369,769 371,785L352,773.5L48.5,955.5C43.5,958.5 38,960 32,960C23,960 15.4167,956.917 9.25,950.75C3.08333,944.583 0,937 0,928L0,224C0,209.667 6.66667,199.833 20,194.5L340,66.5C344.333,64.8334 348.333,64.0001 352,64C355.667,64.0001 359.667,64.8334 364,66.5L672,189.5L980,66.5C984.333,64.8334 988.5,64.0001 992.5,64C1001.17,64.0001 1008.58,67.1667 1014.75,73.5C1020.92,79.8334 1024,87.3334 1024,96ZM320,143.5L64,245.5L64,871.5L320,718ZM1024,736C1024,775.667 1016.42,813 1001.25,848C986.083,883 965.5,913.5 939.5,939.5C913.5,965.5 883,986.083 848,1001.25C813,1016.42 775.667,1024 736,1024C696,1024 658.5,1016.5 623.5,1001.5C588.5,986.5 558,966 532,940C506,914 485.5,883.5 470.5,848.5C455.5,813.5 448,776 448,736C448,696.333 455.583,659 470.75,624C485.917,589 506.5,558.5 532.5,532.5C558.5,506.5 589,485.917 624,470.75C659,455.583 696.333,448 736,448C762.333,448 787.75,451.417 812.25,458.25C836.75,465.083 859.667,474.75 881,487.25C902.333,499.75 921.833,514.833 939.5,532.5C957.167,550.167 972.25,569.667 984.75,591C997.25,612.333 1006.92,635.25 1013.75,659.75C1020.58,684.25 1024,709.667 1024,736ZM900,736C900,726 896.5,717.5 889.5,710.5C882.5,703.5 874,700 864,700C854,700 845.5,703.5 838.5,710.5L768,781L768,608C768,599.333 764.833,591.833 758.5,585.5C752.167,579.167 744.667,576 736,576C727.333,576 719.833,579.167 713.5,585.5C707.167,591.833 704,599.333 704,608L704,781L633.5,710.5C626.5,703.5 618,700 608,700C598,700 589.5,703.5 582.5,710.5C575.5,717.5 572,726 572,736C572,746 575.5,754.5 582.5,761.5L710.5,889.5C717.5,896.5 726,900 736,900C746,900 754.5,896.5 761.5,889.5L889.5,761.5C896.5,754.5 900,746 900,736Z"
    fill="currentColor"
    fill-opacity="1"
  />
</svg>
